<?xml version="1.0" encoding="utf-8"?>
<!-- Generator: Adobe Illustrator 18.0.0, SVG Export Plug-In . SVG Version: 6.00 Build 0)  -->
<!DOCTYPE svg PUBLIC "-//W3C//DTD SVG 1.1//EN" "http://www.w3.org/Graphics/SVG/1.1/DTD/svg11.dtd">
<svg version="1.1" id="Layer_1" xmlns="http://www.w3.org/2000/svg" xmlns:xlink="http://www.w3.org/1999/xlink" x="0px" y="0px"
	 viewBox="0 0 63 64.5" enable-background="new 0 0 63 64.5" xml:space="preserve">
<g>
	<path fill="#4E4F50" d="M57.2,2.6c-1.5,0-3.3,0.2-5.6,0.5c-2.3,0.4-3.9,0.8-4.8,1.3c-1,0.5-2.4,1.8-4.4,3.9c-1.9,2-4.4,5.3-7.4,9.5
		c-3,4.3-5.6,8.4-7.8,12.4c-2,3.5-4,7.4-6,11.5c-1.4-1.8-2.9-3.2-4.4-4.3c-1.9-1.3-3.8-2-5.5-2c-1.7,0-3.7,0.8-5.7,2.3
		c-2.1,1.6-3.2,3.4-3.2,5.3c0,1.5,0.9,3.2,2.8,5.2c2.7,3,4.9,5.8,6.5,8.3c1.2,1.8,2,3,2.5,3.6c0.6,0.6,1.3,1.1,2.1,1.4
		c0.8,0.3,2.2,0.4,4.1,0.4c2.7,0,4.5-0.3,5.6-0.9c1.1-0.6,1.9-1.4,2.5-2.5c0.5-1,1.4-2.9,2.6-5.9c3-7.5,7.1-15.4,12.2-23.4
		c5.1-8,10-14.2,14.7-18.6c1.2-1,1.9-1.8,2.2-2.3C60.8,7.9,61,7.2,61,6.4c0-1-0.4-1.9-1.1-2.6C59.3,3,58.3,2.6,57.2,2.6z"/>
</g>
</svg>
