<?xml version="1.0" encoding="utf-8"?>
<!-- Generator: Adobe Illustrator 18.0.0, SVG Export Plug-In . SVG Version: 6.00 Build 0)  -->
<!DOCTYPE svg PUBLIC "-//W3C//DTD SVG 1.1//EN" "http://www.w3.org/Graphics/SVG/1.1/DTD/svg11.dtd">
<svg version="1.1" id="Layer_1" xmlns="http://www.w3.org/2000/svg" xmlns:xlink="http://www.w3.org/1999/xlink" x="0px" y="0px"
	 viewBox="0 0 96.5 55.9" enable-background="new 0 0 96.5 55.9" xml:space="preserve">
<g>
	<path fill="#4E4F50" d="M78.7,23.1c-0.6,0-1.2,0-1.8,0.1c0-0.5,0-0.9,0-1.4c0-11-8.8-19.9-19.7-19.9C47,2,38.5,9.9,37.6,20
		c3.5,2.8,5.8,7,5.8,11.9c0,0,0.1,0,0.1,0c6.8,0,12.4,5.4,12.4,11.9c0,4.1-2.1,7.7-5.4,9.9h28.2l0,0c8.7,0,15.8-6.9,15.8-15.3
		C94.5,30,87.4,23.1,78.7,23.1z"/>
	<path fill="#4E4F50" d="M53.8,43.8c0-5.4-4.6-9.8-10.2-9.8c-0.4,0-0.8,0-1.1,0.1l-1.3,0.1l0.1-1.3c0-0.3,0-0.6,0-0.9
		c0-7.2-5.8-13.1-13-13.1c-3.3,0-6.4,1.2-8.8,3.5c-2.4,2.2-3.8,5.3-4.1,8.5l-0.1,1.1L14.2,32c-0.5-0.1-1-0.1-1.4-0.1
		C6.9,31.9,2,36.7,2,42.7c0,6,4.8,10.8,10.7,10.9l0.2,0h30.5l0.2,0C49.2,53.6,53.8,49.2,53.8,43.8z"/>
</g>
</svg>
