<?xml version="1.0" encoding="utf-8"?>
<!-- Generator: Adobe Illustrator 18.0.0, SVG Export Plug-In . SVG Version: 6.00 Build 0)  -->
<!DOCTYPE svg PUBLIC "-//W3C//DTD SVG 1.1//EN" "http://www.w3.org/Graphics/SVG/1.1/DTD/svg11.dtd">
<svg version="1.1" id="Layer_1" xmlns="http://www.w3.org/2000/svg" xmlns:xlink="http://www.w3.org/1999/xlink" x="0px" y="0px"
	 viewBox="0 0 45.4 40.6" enable-background="new 0 0 45.4 40.6" xml:space="preserve">
<g>
	<path fill="none" d="M19.7,6.7c-5.5,0-9.9,4.4-9.9,9.9c0,5.5,4.4,9.9,9.9,9.9c5.5,0,9.9-4.4,9.9-9.9C29.5,11.1,25.1,6.7,19.7,6.7z
		 M15,20.2c-0.1,0-0.3,0-0.4-0.1c-0.3-0.2-0.3-0.7-0.1-0.9l6.9-8.7c0.2-0.3,0.6-0.3,0.9-0.1c0.3,0.2,0.3,0.6,0.1,0.9L15.5,20
		C15.4,20.1,15.2,20.2,15,20.2z M25.3,14.2l-6.9,8.7c-0.1,0.2-0.3,0.3-0.5,0.3c-0.1,0-0.3,0-0.4-0.1c-0.3-0.2-0.3-0.6-0.1-0.9
		l6.9-8.7c0.2-0.3,0.6-0.3,0.9-0.1C25.5,13.5,25.5,13.9,25.3,14.2z"/>
	<path fill="#616E7D" d="M39.7,33.4l-0.1-0.1l-3.6,3.6l0.1,0.1l1,1c0.6,0.6,1.9,0.3,2.9-0.7c1-1,1.3-2.3,0.7-2.9L39.7,33.4
		L39.7,33.4z"/>
	<polygon fill="#AAD3C7" points="38.6,32.4 35,36 35.9,36.8 39.5,33.2 39.4,33.1 39.4,33.1 	"/>
	<path fill="#616E7D" d="M19.5,2.5c-7.8,0-14,6.3-14,14c0,7.8,6.3,14,14,14c2.9,0,5.5-0.9,7.8-2.3L35,36l3.6-3.6l-7.7-7.6
		c1.6-2.3,2.6-5.1,2.6-8.1C33.5,8.8,27.2,2.5,19.5,2.5z M19.7,26.5c-5.5,0-9.9-4.4-9.9-9.9c0-5.5,4.4-9.9,9.9-9.9
		c5.5,0,9.9,4.4,9.9,9.9C29.5,22,25.1,26.5,19.7,26.5z"/>
	<path fill="#82BFAB" d="M21.4,10.5l-6.9,8.7c-0.2,0.3-0.2,0.7,0.1,0.9c0.1,0.1,0.3,0.1,0.4,0.1c0.2,0,0.4-0.1,0.5-0.3l6.9-8.7
		c0.2-0.3,0.2-0.7-0.1-0.9C22,10.1,21.6,10.2,21.4,10.5z"/>
	<path fill="#82BFAB" d="M24.3,13.4L17.4,22c-0.2,0.3-0.2,0.7,0.1,0.9c0.1,0.1,0.3,0.1,0.4,0.1c0.2,0,0.4-0.1,0.5-0.3l6.9-8.7
		c0.2-0.3,0.2-0.7-0.1-0.9C24.9,13,24.5,13.1,24.3,13.4z"/>
</g>
</svg>
